<?xml version="1.0" encoding="UTF-8" standalone="no"?>
<!DOCTYPE svg PUBLIC "-//W3C//DTD SVG 1.1//EN" "http://www.w3.org/Graphics/SVG/1.1/DTD/svg11.dtd">
<svg xmlns="http://www.w3.org/2000/svg" version="1.1" viewBox="0 0 900 693">
<path fill="#000000" d="M 761.08,198.93 Q 764.20,200.15 768.00,201.39 Q 772.10,202.73 774.87,203.97 Q 787.29,209.50 797.75,216.00 Q 807.17,221.85 821.44,231.56 Q 828.22,236.18 835.74,244.10 Q 841.74,250.42 848.44,258.21 Q 864.31,276.66 873.81,298.19 Q 885.13,323.84 889.25,348.25 Q 892.51,367.56 892.94,390.25 Q 893.19,403.33 893.16,410.25 Q 892.92,460.21 871.55,505.13 Q 866.43,515.88 862.52,522.98 Q 856.03,534.76 847.52,545.28 Q 830.79,565.99 810.03,582.49 Q 805.09,586.43 797.54,591.46 Q 787.27,598.31 784.69,599.94 Q 781.12,602.18 778.23,604.42 Q 772.23,609.06 771.99,609.23 Q 759.58,617.95 745.25,625.00 Q 722.99,635.96 700.74,643.47 Q 674.57,652.29 647.74,658.74 Q 638.62,660.93 628.19,662.98 Q 574.82,673.47 520.55,677.51 Q 518.07,677.70 514.06,678.64 Q 511.06,679.35 507.50,679.75 Q 478.62,683.00 451.00,681.25 Q 442.90,680.74 409.50,679.71 Q 376.87,678.70 343.50,671.00 Q 332.17,668.39 322.94,665.91 Q 313.36,663.33 303.91,659.81 Q 260.73,643.68 222.11,618.33 Q 203.72,606.25 186.31,590.69 Q 178.88,584.04 173.29,577.71 Q 139.19,539.06 117.69,490.31 Q 114.00,481.96 111.46,475.21 Q 110.42,472.45 106.00,459.81 Q 97.57,435.65 94.06,418.19 Q 89.17,393.84 88.93,369.00 Q 88.86,362.02 88.42,354.86 A 1.56,1.55 -8.9 0 0 86.48,353.45 Q 75.03,356.36 62.84,355.80 Q 54.56,355.42 49.70,354.41 Q 43.76,353.17 37.06,350.19 Q 19.10,342.19 12.75,323.00 Q 10.64,316.62 9.39,311.08 Q 8.19,305.73 7.89,298.83 Q 7.32,286.16 8.30,273.52 Q 9.13,262.81 11.35,253.77 Q 16.96,230.98 29.81,212.31 Q 34.29,205.81 40.87,200.10 Q 46.29,195.40 53.99,190.32 Q 69.11,180.34 87.08,175.08 A 0.60,0.59 61.4 0 0 87.36,174.12 Q 71.23,155.31 70.44,131.56 Q 70.19,124.34 71.26,118.09 Q 72.25,112.32 75.31,105.34 Q 82.70,88.45 95.57,75.44 Q 101.74,69.21 110.94,62.71 Q 146.09,37.86 188.25,32.50 Q 202.86,30.64 220.77,32.81 Q 241.19,35.28 260.94,40.96 Q 266.99,42.70 272.21,45.59 Q 273.90,46.53 275.63,45.65 Q 297.17,34.80 319.65,27.80 Q 325.22,26.07 338.85,22.19 Q 364.30,14.96 390.25,9.75 Q 395.57,8.68 410.30,7.20 Q 420.87,6.14 430.24,5.78 Q 454.30,4.86 487.25,5.50 Q 514.50,6.03 538.19,10.56 Q 549.51,12.73 569.29,17.58 Q 605.24,26.41 638.30,42.75 Q 647.85,47.48 655.63,52.67 Q 679.62,68.70 699.19,91.06 Q 704.80,97.48 709.18,102.94 Q 712.75,107.37 718.14,115.59 Q 723.71,124.09 729.69,132.31 Q 733.34,137.34 739.22,148.44 Q 747.09,163.32 747.91,164.99 Q 754.82,179.20 758.30,195.65 Q 758.80,198.04 761.08,198.93 ZM 812.58,543.42 Q 813.57,542.49 814.42,541.42 Q 851.75,494.70 864.11,436.57 Q 866.58,424.90 867.67,416.90 Q 869.88,400.56 868.46,384.00 Q 867.70,375.08 865.50,361.00 Q 862.28,340.37 853.84,320.66 A 1.32,1.32 77.1 0 0 852.57,319.86 Q 846.78,320.12 842.66,320.70 Q 834.04,321.92 825.39,321.59 Q 821.02,321.42 813.78,320.37 Q 805.29,319.13 802.25,318.50 Q 783.07,314.51 764.94,302.06 Q 747.92,290.38 738.10,274.15 Q 734.31,267.89 732.57,261.77 Q 730.67,255.13 730.44,248.24 Q 730.12,238.57 732.06,231.88 Q 734.29,224.17 740.28,217.14 A 1.86,1.85 60.1 0 0 740.69,215.60 Q 736.71,194.07 727.22,175.11 Q 703.92,128.58 666.05,92.96 Q 662.68,89.79 658.24,86.43 A 0.82,0.82 -50.1 0 0 657.13,86.53 Q 647.96,96.71 633.79,99.54 A 0.74,0.74 71.6 0 0 633.27,100.58 Q 633.70,101.48 633.51,101.79 A 0.69,0.37 40.4 0 1 632.68,101.61 L 631.34,100.36 A 1.05,0.94 60.4 0 0 630.51,100.08 Q 621.77,101.40 612.00,99.75 Q 596.78,97.18 584.66,89.11 Q 573.90,81.94 567.76,70.77 Q 566.20,67.93 565.54,64.84 Q 564.80,61.39 564.75,58.50 Q 564.62,50.78 570.00,44.75 Q 571.05,43.58 570.38,42.81 A 1.25,0.73 -12.8 0 0 569.50,42.53 Q 568.35,42.57 567.27,42.20 Q 565.26,41.52 565.16,41.49 Q 533.38,33.99 500.95,30.48 Q 490.91,29.39 481.00,29.11 Q 446.80,28.14 412.75,31.98 Q 366.30,37.21 322.55,53.14 Q 312.15,56.93 303.87,60.31 Q 265.29,76.07 232.65,102.01 Q 227.86,105.82 221.90,111.60 Q 216.71,116.62 211.47,121.59 Q 202.27,130.31 197.33,135.72 Q 189.41,144.39 182.13,153.62 Q 176.33,160.98 170.57,169.92 Q 165.15,178.33 157.19,191.19 Q 143.70,212.97 136.23,233.99 Q 127.74,257.87 126.25,264.00 Q 122.34,280.12 118.14,296.17 Q 114.86,308.72 114.00,325.75 Q 113.25,340.64 114.54,355.50 Q 116.55,378.56 120.09,401.43 Q 122.71,418.38 123.20,421.20 Q 127.26,444.60 135.87,466.84 Q 144.64,489.52 155.76,511.15 Q 158.47,516.44 163.44,524.06 Q 178.46,547.12 195.96,566.06 Q 201.09,571.60 207.21,576.74 Q 213.16,581.73 219.31,586.48 Q 223.00,589.33 232.06,594.94 Q 280.70,625.01 333.25,638.50 Q 359.76,645.31 383.71,649.71 Q 391.67,651.17 403.48,652.71 Q 413.65,654.04 423.81,655.44 Q 437.61,657.34 458.75,657.84 Q 466.63,658.03 478.74,657.77 Q 494.24,657.44 509.75,657.25 Q 511.73,657.23 513.11,657.40 Q 515.46,657.70 516.42,657.63 Q 573.97,653.57 630.48,641.90 Q 658.40,636.14 693.25,624.75 Q 730.21,612.67 759.94,593.44 Q 762.34,591.89 764.07,589.33 Q 765.51,587.21 766.95,586.11 Q 790.91,567.97 810.68,545.33 Q 811.26,544.66 812.58,543.42 ZM 576.89,50.65 Q 573.38,55.35 574.40,60.78 Q 574.98,63.87 575.64,65.62 Q 576.43,67.74 578.25,70.00 Q 583.93,77.02 590.62,81.52 Q 597.33,86.04 605.67,88.75 Q 617.75,92.66 630.84,90.51 Q 641.91,88.70 649.28,81.35 Q 650.87,79.75 649.03,78.45 Q 642.90,74.11 637.08,69.91 Q 629.89,64.72 621.86,60.98 Q 603.54,52.47 583.93,46.40 A 3.38,3.37 37.5 0 0 581.14,46.76 Q 578.61,48.35 576.89,50.65 ZM 248.92,59.11 Q 246.05,58.50 242.84,57.61 Q 224.80,52.56 206.42,54.01 Q 197.89,54.67 186.61,56.69 Q 166.78,60.24 148.41,68.88 Q 127.27,78.82 113.19,97.44 Q 99.45,115.62 104.38,138.17 Q 105.59,143.70 109.00,149.75 Q 112.07,155.19 116.70,158.52 Q 120.98,161.60 126.94,163.55 Q 133.09,165.55 139.77,165.00 A 1.08,1.07 14.7 0 0 140.58,164.53 Q 151.61,148.87 163.81,134.06 Q 170.73,125.67 190.33,105.47 Q 198.58,96.97 204.79,91.67 Q 219.34,79.24 235.65,69.12 Q 242.32,64.98 249.16,60.33 Q 250.48,59.43 248.92,59.11 ZM 36.62,262.94 Q 31.47,282.39 35.75,301.75 Q 37.76,310.86 44.47,316.72 Q 49.82,321.38 58.99,324.86 Q 71.85,329.74 86.10,327.48 A 1.88,1.87 88.4 0 0 87.68,325.80 Q 88.81,313.51 89.84,302.01 Q 91.23,286.46 94.97,271.31 Q 97.80,259.89 100.86,248.53 Q 107.62,223.51 119.49,200.33 Q 120.37,198.61 118.44,198.71 Q 112.23,199.05 106.31,199.39 Q 99.06,199.81 94.30,200.93 Q 83.16,203.55 74.56,208.81 Q 53.57,221.66 43.33,244.14 Q 39.18,253.25 36.62,262.94 ZM 760.44,286.56 Q 778.58,303.04 801.68,308.64 Q 811.65,311.06 821.40,311.92 Q 834.95,313.11 848.87,310.30 A 0.80,0.80 70.8 0 0 849.42,309.16 Q 842.94,296.36 835.70,283.30 Q 830.28,273.50 826.44,269.06 Q 796.33,234.27 752.72,219.41 A 1.05,1.05 38.4 0 0 751.83,219.51 Q 744.61,223.95 742.25,230.75 Q 736.86,246.26 742.48,261.50 Q 744.99,268.30 749.96,275.03 Q 754.52,281.19 760.44,286.56 Z"/>
<path fill="#000000" d="M 293.67,89.42 Q 301.64,80.65 311.85,74.71 Q 313.14,73.95 316.33,72.71 Q 317.87,72.11 319.33,71.32 Q 321.12,70.36 322.29,69.96 Q 329.96,67.38 338.00,66.51 Q 356.61,64.51 367.43,78.03 Q 369.84,81.05 370.85,85.06 Q 373.42,95.22 371.93,105.35 Q 370.61,114.33 365.34,124.11 Q 358.00,137.75 346.07,148.08 Q 339.95,153.38 332.40,156.28 Q 326.58,158.52 317.31,160.81 Q 312.95,161.89 310.27,161.61 Q 305.92,161.14 301.68,160.13 Q 297.03,159.03 293.58,157.16 Q 285.30,152.68 280.93,144.73 Q 277.07,137.72 276.95,128.19 Q 276.78,114.85 283.56,103.06 Q 287.54,96.15 293.67,89.42 ZM 321.50,81.25 Q 307.47,85.87 298.74,97.79 Q 295.23,102.58 292.22,107.71 Q 284.78,120.37 287.47,134.96 Q 289.10,143.81 297.94,148.56 Q 305.88,152.84 313.67,151.78 Q 317.54,151.26 324.97,148.91 Q 332.59,146.51 338.81,141.56 Q 351.61,131.39 358.68,116.50 Q 360.50,112.66 361.50,108.96 Q 362.55,105.05 363.04,101.00 Q 363.32,98.61 362.56,92.94 Q 361.22,82.93 353.45,78.29 Q 346.49,74.12 338.49,75.69 Q 329.93,77.37 321.91,80.77 A 0.22,0.22 -3.3 0 0 321.78,80.91 L 321.75,81.00 A 0.38,0.38 -45.0 0 1 321.50,81.25 Z"/>
<path fill="#000000" d="M 611.83,138.59 Q 615.50,134.50 620.05,131.59 Q 624.59,128.68 629.54,126.60 Q 635.33,124.17 641.61,123.72 Q 647.48,123.31 653.86,124.29 Q 666.18,126.19 674.94,134.56 Q 680.20,139.59 686.44,149.06 Q 690.93,155.88 700.21,174.11 Q 706.22,185.91 711.06,202.44 Q 713.94,212.25 713.00,220.50 Q 712.85,221.84 711.77,224.35 Q 710.89,226.42 709.57,227.67 Q 705.35,231.67 701.07,228.77 Q 698.80,227.23 696.53,222.86 Q 691.43,213.01 689.25,205.25 Q 684.61,188.71 679.08,175.90 Q 675.85,168.42 672.08,162.60 Q 667.97,156.25 662.93,150.56 Q 660.24,147.52 656.65,146.05 Q 653.52,144.76 649.20,145.18 Q 637.88,146.28 630.04,154.01 Q 626.00,157.98 623.93,163.50 Q 621.92,168.88 621.50,174.75 Q 620.74,185.40 623.16,195.53 Q 623.65,197.55 629.46,214.50 Q 634.35,228.75 637.50,239.00 Q 638.06,240.84 638.21,244.00 Q 638.72,255.36 629.07,254.08 Q 626.02,253.68 623.82,251.96 Q 621.60,250.23 619.94,247.56 Q 616.40,241.90 614.63,236.92 Q 610.36,224.94 606.61,212.79 Q 600.25,192.25 600.35,170.88 Q 600.38,164.53 601.57,159.21 Q 602.98,152.88 605.25,148.00 Q 607.25,143.71 611.83,138.59 Z"/>
<path fill="#000000" d="M 440.72,198.29 Q 455.66,213.99 463.59,234.18 Q 465.86,239.96 467.94,245.81 Q 469.33,249.74 472.91,267.23 Q 472.93,267.33 474.97,276.08 Q 476.02,280.58 476.54,285.19 Q 477.32,291.94 473.47,296.11 Q 469.63,300.27 463.99,299.42 Q 457.52,298.44 455.50,290.75 Q 451.50,275.54 449.11,267.72 Q 443.16,248.15 433.56,231.19 Q 433.41,230.92 433.14,231.00 A 0.26,0.22 -10.8 0 1 432.81,230.81 Q 432.71,229.14 431.56,227.19 Q 428.41,221.81 425.51,218.49 Q 421.33,213.71 415.68,211.62 Q 410.75,209.80 404.16,210.33 Q 395.22,211.05 386.69,215.44 Q 382.88,217.39 380.05,219.94 Q 377.34,222.38 375.76,226.48 Q 370.85,239.30 372.44,253.26 Q 373.14,259.35 374.49,265.32 Q 376.46,274.05 377.36,277.21 Q 378.49,281.21 380.18,285.02 Q 382.45,290.12 383.15,292.74 Q 385.78,302.66 387.00,314.75 Q 387.43,318.98 386.10,321.89 Q 384.11,326.25 379.25,326.00 Q 374.85,325.77 370.19,321.56 Q 367.32,318.97 364.49,312.22 Q 362.49,307.45 360.74,302.58 Q 359.44,298.94 357.00,292.94 Q 350.26,276.31 349.00,257.50 Q 348.01,242.71 351.06,228.94 Q 353.38,218.46 358.06,211.49 Q 363.37,203.59 371.69,197.94 Q 381.53,191.25 392.56,188.39 Q 402.03,185.93 410.05,185.88 Q 419.13,185.81 427.69,189.31 Q 435.01,192.31 440.72,198.29 Z"/>
<path fill="#000000" d="M 536.03,273.34 Q 534.38,271.30 535.31,268.56 Q 535.90,266.83 537.67,265.23 Q 538.86,264.16 541.05,263.10 Q 555.58,256.09 571.74,254.66 Q 577.86,254.12 577.99,259.59 A 2.33,2.31 74.0 0 1 576.87,261.63 Q 563.59,269.61 549.59,273.41 Q 549.51,273.43 546.56,274.35 Q 543.29,275.37 539.90,275.11 Q 537.30,274.92 536.03,273.34 Z"/>
<path fill="#000000" d="M 277.69,478.13 Q 271.30,478.98 265.01,480.36 Q 257.85,481.93 253.73,482.03 Q 230.20,482.64 210.81,469.44 Q 205.10,465.54 200.23,460.14 Q 195.61,455.01 192.39,448.57 Q 187.13,438.06 185.49,426.47 Q 184.08,416.51 184.82,406.51 Q 186.37,385.50 199.94,368.19 Q 212.84,351.73 231.09,342.73 Q 255.10,330.90 281.33,326.78 Q 292.36,325.04 301.24,325.21 Q 317.50,325.53 333.05,330.98 Q 341.91,334.09 348.54,340.20 Q 354.77,345.94 358.55,354.67 Q 366.05,372.01 360.77,391.27 Q 360.70,391.51 359.85,393.50 Q 359.36,394.65 359.40,395.93 A 1.13,1.12 -23.9 0 1 359.07,396.77 Q 358.29,397.58 357.93,398.63 Q 357.27,400.58 357.24,400.66 Q 347.73,420.84 333.70,438.20 Q 323.56,450.74 311.15,460.91 Q 305.86,465.24 299.53,468.38 Q 290.59,472.81 280.73,476.55 A 1.16,1.14 80.6 0 0 279.99,477.60 Q 279.94,479.35 278.57,478.37 A 1.33,1.14 55.8 0 0 277.69,478.13 ZM 304.81,451.81 Q 318.16,439.93 327.38,427.61 Q 341.76,408.41 350.81,386.17 Q 354.92,376.09 352.25,365.00 Q 349.64,354.18 342.27,347.33 Q 336.45,341.93 325.15,338.15 Q 309.66,332.96 294.25,334.25 Q 268.98,336.36 244.12,347.40 Q 233.51,352.11 228.03,355.39 Q 220.27,360.04 213.76,366.51 Q 191.08,389.09 194.11,421.49 Q 194.29,423.43 195.94,430.81 Q 197.96,439.89 202.49,447.29 Q 206.82,454.36 214.26,460.09 Q 233.60,474.96 259.49,471.67 Q 277.29,469.40 292.91,460.63 Q 298.32,457.59 304.81,451.81 Z"/>
<path fill="#000000" d="M 723.19,372.06 Q 719.99,368.94 721.02,365.30 Q 721.79,362.58 725.16,360.72 Q 733.37,356.19 744.00,357.50 Q 753.64,358.69 760.18,362.75 Q 767.87,367.52 770.25,377.00 Q 771.62,382.46 771.84,383.48 Q 772.80,387.97 770.94,390.44 Q 768.58,393.56 765.31,392.69 Q 762.46,391.92 760.11,390.13 Q 757.79,388.36 755.32,387.13 A 1.42,1.42 -69.5 0 0 753.31,388.05 Q 750.43,399.51 746.29,410.53 Q 742.40,420.92 738.53,428.97 Q 727.77,451.37 709.69,469.94 Q 696.71,483.26 681.92,491.66 Q 661.01,503.52 638.50,512.00 Q 635.36,513.18 630.36,514.61 Q 626.78,515.64 622.06,516.58 Q 610.55,518.88 599.06,521.31 Q 559.54,529.65 519.87,523.90 Q 511.63,522.70 500.33,519.73 Q 493.15,517.84 485.97,515.89 Q 477.99,513.73 471.81,511.48 Q 450.75,503.84 430.90,493.38 Q 410.46,482.61 392.92,467.55 Q 391.22,466.09 390.68,468.26 Q 390.05,470.83 389.88,473.74 Q 389.68,477.17 387.43,479.13 Q 385.54,480.77 382.34,481.15 Q 376.03,481.89 373.06,475.94 Q 371.48,472.76 371.01,468.43 Q 370.63,464.89 371.22,460.72 Q 373.12,447.26 381.68,436.98 Q 385.48,432.42 390.13,429.39 Q 395.06,426.17 400.56,424.56 Q 403.19,423.80 405.86,424.37 Q 408.63,424.98 410.21,426.95 Q 412.14,429.35 411.40,432.45 Q 410.96,434.30 408.60,436.86 Q 404.79,440.99 401.68,445.68 Q 399.87,448.40 402.63,450.16 Q 406.09,452.36 409.57,454.52 Q 412.99,456.66 416.66,458.65 Q 438.78,470.68 452.56,477.19 Q 463.88,482.53 478.09,487.51 Q 487.66,490.86 497.30,492.96 Q 530.26,500.13 564.01,500.34 Q 574.99,500.41 583.96,499.30 Q 605.47,496.65 625.82,488.83 Q 658.80,476.17 682.94,457.94 Q 707.67,439.26 720.00,410.79 Q 726.77,395.14 730.20,378.36 A 2.15,2.14 -72.6 0 0 728.95,375.96 Q 725.81,374.62 723.19,372.06 Z"/>
</svg>
